<mxfile host="app.diagrams.net" agent="Mozilla/5.0 (Windows NT 10.0; Win64; x64) AppleWebKit/537.36 (KHTML, like Gecko) Chrome/134.0.0.0 Safari/537.36" version="26.1.1">
  <diagram name="Page-1" id="KXTSaiuGEQTjJxO2fIvt">
    <mxGraphModel dx="59643" dy="74215" grid="1" gridSize="10" guides="1" tooltips="1" connect="1" arrows="1" fold="1" page="1" pageScale="1" pageWidth="850" pageHeight="1100" math="0" shadow="0">
      <root>
        <mxCell id="0" />
        <mxCell id="1" parent="0" />
        <mxCell id="PAUNCizhW_kbBoSPo-pm-1" value="Platformă de Comerț Electronic" style="rounded=1;fillColor=#D9EAD3;strokeColor=#6AA84F;fontSize=14;" vertex="1" parent="1">
          <mxGeometry x="400" y="40" width="200" height="50" as="geometry" />
        </mxCell>
        <mxCell id="PAUNCizhW_kbBoSPo-pm-2" value="Frontend (Interfața Web)" style="rounded=1;fillColor=#CFE2F3;strokeColor=#3D85C6;fontSize=12;" vertex="1" parent="1">
          <mxGeometry x="100" y="200" width="200" height="50" as="geometry" />
        </mxCell>
        <mxCell id="PAUNCizhW_kbBoSPo-pm-3" value="Backend (API Server)" style="rounded=1;fillColor=#F4CCCC;strokeColor=#CC0000;fontSize=12;" vertex="1" parent="1">
          <mxGeometry x="400" y="200" width="200" height="50" as="geometry" />
        </mxCell>
        <mxCell id="PAUNCizhW_kbBoSPo-pm-4" value="Baza de Date" style="rounded=1;fillColor=#EAD1DC;strokeColor=#A64D79;fontSize=12;" vertex="1" parent="1">
          <mxGeometry x="400" y="300" width="200" height="50" as="geometry" />
        </mxCell>
        <mxCell id="PAUNCizhW_kbBoSPo-pm-5" value="Serviciu de Plăți" style="rounded=1;fillColor=#FFF2CC;strokeColor=#BF9000;fontSize=12;" vertex="1" parent="1">
          <mxGeometry x="650" y="200" width="200" height="50" as="geometry" />
        </mxCell>
        <mxCell id="PAUNCizhW_kbBoSPo-pm-6" value="Sistem de Livrare" style="rounded=1;fillColor=#D9D2E9;strokeColor=#674EA7;fontSize=12;" vertex="1" parent="1">
          <mxGeometry x="650" y="300" width="200" height="50" as="geometry" />
        </mxCell>
        <mxCell id="PAUNCizhW_kbBoSPo-pm-7" style="edgeStyle=elbowEdgeStyle;rounded=1;strokeColor=#000000;" edge="1" parent="1" source="PAUNCizhW_kbBoSPo-pm-2" target="PAUNCizhW_kbBoSPo-pm-3" />
        <mxCell id="PAUNCizhW_kbBoSPo-pm-8" style="edgeStyle=elbowEdgeStyle;rounded=1;strokeColor=#000000;" edge="1" parent="1" source="PAUNCizhW_kbBoSPo-pm-3" target="PAUNCizhW_kbBoSPo-pm-4" />
        <mxCell id="PAUNCizhW_kbBoSPo-pm-9" style="edgeStyle=elbowEdgeStyle;rounded=1;strokeColor=#000000;" edge="1" parent="1" source="PAUNCizhW_kbBoSPo-pm-3" target="PAUNCizhW_kbBoSPo-pm-5" />
        <mxCell id="PAUNCizhW_kbBoSPo-pm-10" style="edgeStyle=elbowEdgeStyle;rounded=1;strokeColor=#000000;" edge="1" parent="1" source="PAUNCizhW_kbBoSPo-pm-3" target="PAUNCizhW_kbBoSPo-pm-6" />
        <mxCell id="PAUNCizhW_kbBoSPo-pm-12" value="" style="endArrow=classic;html=1;rounded=0;exitX=1;exitY=0.5;exitDx=0;exitDy=0;entryX=0;entryY=0.5;entryDx=0;entryDy=0;" edge="1" parent="1" source="PAUNCizhW_kbBoSPo-pm-2" target="PAUNCizhW_kbBoSPo-pm-3">
          <mxGeometry width="50" height="50" relative="1" as="geometry">
            <mxPoint x="460" y="240" as="sourcePoint" />
            <mxPoint x="510" y="190" as="targetPoint" />
            <Array as="points" />
          </mxGeometry>
        </mxCell>
        <mxCell id="PAUNCizhW_kbBoSPo-pm-15" value="" style="endArrow=classic;html=1;rounded=0;entryX=0.5;entryY=0;entryDx=0;entryDy=0;exitX=0.5;exitY=1;exitDx=0;exitDy=0;" edge="1" parent="1" source="PAUNCizhW_kbBoSPo-pm-3" target="PAUNCizhW_kbBoSPo-pm-4">
          <mxGeometry width="50" height="50" relative="1" as="geometry">
            <mxPoint x="460" y="240" as="sourcePoint" />
            <mxPoint x="510" y="190" as="targetPoint" />
          </mxGeometry>
        </mxCell>
        <mxCell id="PAUNCizhW_kbBoSPo-pm-17" value="" style="endArrow=classic;html=1;rounded=0;exitX=1;exitY=0.5;exitDx=0;exitDy=0;entryX=0;entryY=0.5;entryDx=0;entryDy=0;" edge="1" parent="1" source="PAUNCizhW_kbBoSPo-pm-3" target="PAUNCizhW_kbBoSPo-pm-5">
          <mxGeometry width="50" height="50" relative="1" as="geometry">
            <mxPoint x="460" y="240" as="sourcePoint" />
            <mxPoint x="510" y="190" as="targetPoint" />
          </mxGeometry>
        </mxCell>
        <mxCell id="PAUNCizhW_kbBoSPo-pm-18" value="" style="endArrow=classic;html=1;rounded=0;exitX=0.75;exitY=1;exitDx=0;exitDy=0;entryX=0;entryY=0.25;entryDx=0;entryDy=0;" edge="1" parent="1" source="PAUNCizhW_kbBoSPo-pm-3" target="PAUNCizhW_kbBoSPo-pm-6">
          <mxGeometry width="50" height="50" relative="1" as="geometry">
            <mxPoint x="460" y="240" as="sourcePoint" />
            <mxPoint x="510" y="190" as="targetPoint" />
          </mxGeometry>
        </mxCell>
        <mxCell id="PAUNCizhW_kbBoSPo-pm-19" value="" style="endArrow=classic;html=1;rounded=0;exitX=0;exitY=0.25;exitDx=0;exitDy=0;entryX=1;entryY=0.25;entryDx=0;entryDy=0;" edge="1" parent="1" source="PAUNCizhW_kbBoSPo-pm-5" target="PAUNCizhW_kbBoSPo-pm-3">
          <mxGeometry width="50" height="50" relative="1" as="geometry">
            <mxPoint x="460" y="240" as="sourcePoint" />
            <mxPoint x="510" y="190" as="targetPoint" />
          </mxGeometry>
        </mxCell>
        <mxCell id="PAUNCizhW_kbBoSPo-pm-20" value="" style="endArrow=classic;html=1;rounded=0;exitX=-0.017;exitY=0.64;exitDx=0;exitDy=0;exitPerimeter=0;entryX=0.603;entryY=1;entryDx=0;entryDy=0;entryPerimeter=0;" edge="1" parent="1" source="PAUNCizhW_kbBoSPo-pm-6" target="PAUNCizhW_kbBoSPo-pm-3">
          <mxGeometry width="50" height="50" relative="1" as="geometry">
            <mxPoint x="460" y="240" as="sourcePoint" />
            <mxPoint x="510" y="190" as="targetPoint" />
          </mxGeometry>
        </mxCell>
        <mxCell id="PAUNCizhW_kbBoSPo-pm-21" value="UTILIZATOR&lt;div&gt;&lt;br&gt;&lt;/div&gt;" style="shape=umlActor;verticalLabelPosition=bottom;verticalAlign=top;html=1;outlineConnect=0;" vertex="1" parent="1">
          <mxGeometry x="170" y="40" width="30" height="60" as="geometry" />
        </mxCell>
        <mxCell id="PAUNCizhW_kbBoSPo-pm-27" value="" style="endArrow=classic;html=1;rounded=0;entryX=0.399;entryY=-0.02;entryDx=0;entryDy=0;entryPerimeter=0;" edge="1" parent="1" target="PAUNCizhW_kbBoSPo-pm-2">
          <mxGeometry width="50" height="50" relative="1" as="geometry">
            <mxPoint x="180" y="140" as="sourcePoint" />
            <mxPoint x="350" y="110" as="targetPoint" />
          </mxGeometry>
        </mxCell>
        <mxCell id="PAUNCizhW_kbBoSPo-pm-28" value="" style="endArrow=classic;html=1;rounded=0;exitX=-0.014;exitY=0.844;exitDx=0;exitDy=0;exitPerimeter=0;entryX=0.991;entryY=0.845;entryDx=0;entryDy=0;entryPerimeter=0;" edge="1" parent="1" source="PAUNCizhW_kbBoSPo-pm-3" target="PAUNCizhW_kbBoSPo-pm-2">
          <mxGeometry width="50" height="50" relative="1" as="geometry">
            <mxPoint x="330" y="280" as="sourcePoint" />
            <mxPoint x="380" y="230" as="targetPoint" />
          </mxGeometry>
        </mxCell>
        <mxCell id="PAUNCizhW_kbBoSPo-pm-29" value="" style="endArrow=classic;html=1;rounded=0;exitX=0.5;exitY=0;exitDx=0;exitDy=0;" edge="1" parent="1" source="PAUNCizhW_kbBoSPo-pm-2">
          <mxGeometry width="50" height="50" relative="1" as="geometry">
            <mxPoint x="230" y="180" as="sourcePoint" />
            <mxPoint x="200" y="140" as="targetPoint" />
          </mxGeometry>
        </mxCell>
      </root>
    </mxGraphModel>
  </diagram>
</mxfile>
